<svg xmlns="http://www.w3.org/2000/svg" viewBox="0 0 87.97 86.21"><defs><style>.f365d5f2-e158-4c48-914d-a00345b15153{fill:#95bfce;}.b76a78f4-5d3e-41af-9f7b-726438e5f607{fill:#edcf54;}</style></defs><g id="a48cfb0c-0449-4977-a4d0-eadf4ff135d4" data-name="Layer 2"><g id="e7cf8687-747f-4c62-9318-05ae4036a2b9" data-name="Objects"><path class="f365d5f2-e158-4c48-914d-a00345b15153" d="M76.71,58.14A34.43,34.43,0,0,1,46.87,6.46a4.31,4.31,0,0,0-.07-4.31A4.42,4.42,0,0,0,43,0a43.11,43.11,0,0,0,.16,86.21h0A43,43,0,0,0,80.44,64.6a4.31,4.31,0,0,0-3.73-6.46Z"/><path class="b76a78f4-5d3e-41af-9f7b-726438e5f607" d="M86.81,35.61l-2.52-.37A4.94,4.94,0,0,1,81,32.83l-1.13-2.28c-.56-1.14-1.48-1.14-2,0l-1.12,2.28a5,5,0,0,1-3.32,2.41l-2.52.37c-1.26.18-1.54,1.06-.63,2L72,39.33a4.94,4.94,0,0,1,1.27,3.9l-.43,2.51c-.22,1.26.53,1.8,1.66,1.2l2.25-1.18a5,5,0,0,1,4.1,0l2.25,1.18c1.13.6,1.88.06,1.66-1.2l-.43-2.51a5,5,0,0,1,1.27-3.9l1.82-1.77C88.35,36.67,88.07,35.79,86.81,35.61Z"/></g></g></svg>