<svg xmlns="http://www.w3.org/2000/svg" viewBox="0 0 100.41 72.91"><defs><style>.ee130a37-5ce7-4248-9e29-6ab7f4298884{fill:#7d8a8e;}.b6054595-203b-431e-ba0c-b027a96f3bde{fill:#97a7af;}</style></defs><g id="a72f67b7-bdad-4b5c-8110-68e4a3c566bd" data-name="Layer 2"><g id="b83d2e51-b76a-4763-84cd-f791c8f33c39" data-name="Objects"><path class="ee130a37-5ce7-4248-9e29-6ab7f4298884" d="M95.14,20.79a9.67,9.67,0,0,0-1.38-.66,12.16,12.16,0,0,0,1.11-1.59A12.35,12.35,0,0,0,73.76,5.73a11.73,11.73,0,0,0-12.22,1A28.25,28.25,0,0,1,72.89,28.12,24.72,24.72,0,0,1,92.07,40.18a10.51,10.51,0,0,0,3.07-19.39Z"/><path class="b6054595-203b-431e-ba0c-b027a96f3bde" d="M70.73,32.8a17.58,17.58,0,0,0-2.91.23,22.53,22.53,0,0,0,.32-3.7,23.5,23.5,0,0,0-47-1,22.3,22.3,0,0,0,1.15,44.58H70.73a20.06,20.06,0,0,0,0-40.11Z"/></g></g></svg>