<svg xmlns="http://www.w3.org/2000/svg" viewBox="0 0 84.75 92.75"><defs><style>.eaad36d4-fb74-4bc5-895e-1df36032ccca{fill:#a08824;}.bb2697ed-ea24-4f8f-9cb2-dc5a20bd94ea{fill:#c9ac32;}</style></defs><g id="af7f6162-2d18-403c-9540-b0091b37d399" data-name="Layer 2"><g id="b50c35a8-c25f-4e84-b8ea-11765d116716" data-name="Objects"><path class="eaad36d4-fb74-4bc5-895e-1df36032ccca" d="M43,44.32H26.07c-2.66,0-3.76-1.89-2.45-4.2L35.77,18.71c1.31-2.31.21-4.21-2.45-4.21H18a7.29,7.29,0,0,0-6.42,4.57L.25,51.84A3.23,3.23,0,0,0,3.5,56.41H15.59c2.66,0,4,2,2.9,4.43l-13,29.82c-1.06,2.44-.51,2.79,1.24.79L44.65,48C46.4,46,45.65,44.32,43,44.32Z"/><path class="bb2697ed-ea24-4f8f-9cb2-dc5a20bd94ea" d="M82.69,23.68H69.25c-2.12,0-3-1.5-2-3.34L77,3.34C78,1.5,77.12,0,75,0H62.84a5.77,5.77,0,0,0-5.09,3.63l-9,26a2.57,2.57,0,0,0,2.58,3.63h9.6a2.33,2.33,0,0,1,2.3,3.52L52.86,60.49c-.84,1.93-.4,2.22,1,.62L84,26.58C85.39,25,84.8,23.68,82.69,23.68Z"/></g></g></svg>