<svg xmlns="http://www.w3.org/2000/svg" viewBox="0 0 97.08 100.41"><defs><style>.a18391e1-f6a2-4612-b5ec-fce7e9f92b38{fill:#edcf54;}.fb5b3d19-3107-43be-94ae-dd49c7d41c5f{fill:#95bfce;}.b20891bd-7497-4981-b6de-7da28a473397{fill:#7d8a8e;}.bd0eb66e-f82b-4014-a591-2bbdddb07934{fill:#c9ac32;}</style></defs><g id="a296eb14-e310-4e90-a82c-dbc4f7828214" data-name="Layer 2"><g id="fecca07c-ee3f-4b50-b1a5-712887d90a19" data-name="Objects"><path class="a18391e1-f6a2-4612-b5ec-fce7e9f92b38" d="M96.56,15.89l-1.13-.16A2.25,2.25,0,0,1,94,14.66l-.5-1c-.25-.51-.66-.51-.91,0l-.51,1a2.23,2.23,0,0,1-1.48,1.07l-1.12.16c-.57.08-.69.47-.29.88l.82.79a2.16,2.16,0,0,1,.56,1.73l-.19,1.12c-.09.57.24.81.74.55l1-.53a2.17,2.17,0,0,1,1.83,0l1,.53c.51.26.84,0,.74-.55l-.19-1.12A2.17,2.17,0,0,1,96,17.56l.81-.79C97.25,16.36,97.12,16,96.56,15.89Z"/><path class="fb5b3d19-3107-43be-94ae-dd49c7d41c5f" d="M92.05,26A15.36,15.36,0,0,1,78.73,2.89,1.91,1.91,0,0,0,78.7,1,2,2,0,0,0,77,0,19.13,19.13,0,0,0,60.73,9.05,29,29,0,0,1,73.61,31.34,25.27,25.27,0,0,1,86,36.24c.22-.12.46-.21.68-.34a19.33,19.33,0,0,0,7-7.07A1.93,1.93,0,0,0,92.05,26Z"/><path class="b20891bd-7497-4981-b6de-7da28a473397" d="M70.8,36.64a17.66,17.66,0,0,0-2.91.23,22.72,22.72,0,0,0,.33-3.7,23.53,23.53,0,0,0-47-1,22.32,22.32,0,0,0,1.16,44.62h3.52a8,8,0,0,1,.4-3.48l7-20.29a9.92,9.92,0,0,1,9.13-6.49H51.9a7,7,0,0,1,6.25,10.75L53.78,65h4.1A6.62,6.62,0,0,1,63,76.27l-.45.51H70.8a20.07,20.07,0,1,0,0-40.14Z"/><path class="bd0eb66e-f82b-4014-a591-2bbdddb07934" d="M57.88,70.43H47.41c-1.65,0-2.33-1.17-1.52-2.61l7.52-13.25c.81-1.43.13-2.6-1.51-2.6H42.42a4.51,4.51,0,0,0-4,2.83l-7,20.28a2,2,0,0,0,2,2.83h7.48a1.82,1.82,0,0,1,1.79,2.74L34.64,99.12c-.66,1.5-.32,1.72.77.48l23.5-26.92C60,71.44,59.53,70.43,57.88,70.43Z"/></g></g></svg>