<svg xmlns="http://www.w3.org/2000/svg" viewBox="0 0 85.6 93.55"><defs><style>.f2558485-6e69-4f56-b876-b451528a68f4{fill:#95bfce;}.b18994ef-ed6c-4e55-99a4-c747b4b43a31{fill:#88ccf1;}.fc027441-dbfd-4800-a545-e54dd0ec87ae{fill:#9cd6f4;}.b4e99d23-7c93-4d17-b212-6dcc27285f35{fill:#44768c;}</style></defs><g id="bd0960e7-67c5-4107-929f-f64e17cf3dcb" data-name="Layer 2"><g id="abe341a3-595f-492b-bce5-555e0315b558" data-name="Objects"><path class="f2558485-6e69-4f56-b876-b451528a68f4" d="M82.07,56.7l-11.26,3-8.29-4.79V38.62l8.29-4.79,11.26,3a2.8,2.8,0,1,0,1.45-5.4l-5.86-1.57,4.62-2.67a2.8,2.8,0,1,0-2.79-4.85L74.86,25l1.57-5.86A2.8,2.8,0,0,0,71,17.72L68,29l-8.29,4.78L45.59,25.62V16.05L53.84,7.8a2.8,2.8,0,0,0-4-4l-4.3,4.3V2.8A2.8,2.8,0,1,0,40,2.8V8.14l-4.29-4.3a2.8,2.8,0,0,0-4,4L40,16.05v9.57L25.87,33.77,17.59,29l-3-11.27a2.8,2.8,0,0,0-5.41,1.45L10.73,25,6.11,22.36a2.8,2.8,0,0,0-2.8,4.85l4.63,2.67L2.07,31.45a2.8,2.8,0,0,0,1.45,5.4l11.27-3,8.28,4.79V54.93l-8.28,4.79-11.27-3a2.8,2.8,0,0,0-1.45,5.4l5.87,1.57L3.31,66.34a2.8,2.8,0,0,0,2.8,4.85l4.62-2.67L9.16,74.38a2.8,2.8,0,1,0,5.41,1.45l3-11.27,8.28-4.78L40,67.94V77.5l-8.25,8.25a2.8,2.8,0,0,0,4,4L40,85.41v5.35a2.8,2.8,0,0,0,5.59,0V85.41l4.3,4.3a2.8,2.8,0,0,0,4-4L45.59,77.5V67.94l14.13-8.16L68,64.56l3,11.27a2.8,2.8,0,1,0,5.4-1.45l-1.57-5.86,4.63,2.67a2.8,2.8,0,1,0,2.79-4.85l-4.62-2.67,5.86-1.57a2.8,2.8,0,1,0-1.45-5.4ZM28.67,41.85l8.53,4.93-8.53,4.93ZM40,61.48l-8.53-4.93L40,51.62Zm0-19.55L31.47,37,40,32.07Zm5.59-9.86L54.13,37l-8.54,4.93Zm0,29.41V51.62l8.54,4.93Zm11.34-9.77-8.54-4.93,8.54-4.93Z"/><path class="b18994ef-ed6c-4e55-99a4-c747b4b43a31" d="M61.38,20.5a3.34,3.34,0,1,1-3.33-3.33A3.33,3.33,0,0,1,61.38,20.5Z"/><path class="fc027441-dbfd-4800-a545-e54dd0ec87ae" d="M17.51,46.78a3.34,3.34,0,1,1-3.34-3.34A3.34,3.34,0,0,1,17.51,46.78Z"/><path class="b18994ef-ed6c-4e55-99a4-c747b4b43a31" d="M74.75,46.78a3.33,3.33,0,1,1-3.33-3.34A3.33,3.33,0,0,1,74.75,46.78Z"/><path class="fc027441-dbfd-4800-a545-e54dd0ec87ae" d="M31.39,20.5a3.33,3.33,0,1,1-3.33-3.33A3.33,3.33,0,0,1,31.39,20.5Z"/><path class="b18994ef-ed6c-4e55-99a4-c747b4b43a31" d="M61.12,73.05a3.33,3.33,0,1,1-3.33-3.33A3.33,3.33,0,0,1,61.12,73.05Z"/><path class="fc027441-dbfd-4800-a545-e54dd0ec87ae" d="M31.14,73.05a3.34,3.34,0,1,1-3.34-3.33A3.34,3.34,0,0,1,31.14,73.05Z"/><path class="b4e99d23-7c93-4d17-b212-6dcc27285f35" d="M82.07,56.7l-11.26,3-8.29-4.79V38.62l8.29-4.79,11.26,3a2.8,2.8,0,1,0,1.45-5.4l-5.86-1.57,4.62-2.67a2.8,2.8,0,1,0-2.79-4.85L74.86,25l1.57-5.86A2.8,2.8,0,0,0,71,17.72L68,29l-8.29,4.78L45.59,25.62V16.05L53.84,7.8a2.8,2.8,0,0,0-4-4l-4.3,4.3V2.8A2.79,2.79,0,0,0,42.8,0V93.55a2.79,2.79,0,0,0,2.79-2.79V85.41l4.3,4.3a2.8,2.8,0,0,0,4-4L45.59,77.5V67.94l14.13-8.16L68,64.56l3,11.27a2.8,2.8,0,1,0,5.4-1.45l-1.57-5.86,4.63,2.67a2.8,2.8,0,1,0,2.79-4.85l-4.62-2.67,5.86-1.57a2.8,2.8,0,1,0-1.45-5.4ZM45.59,32.07,54.13,37l-8.54,4.93Zm0,29.41V51.62l8.54,4.93Zm11.34-9.77-8.54-4.93,8.54-4.93Z"/></g></g></svg>