<svg xmlns="http://www.w3.org/2000/svg" viewBox="0 0 100.41 56.68"><defs><style>.acce8f3f-2392-4c80-83d1-45371b25fc7d{fill:#44768c;}</style></defs><g id="bc94f638-916c-4777-8b6a-a2270215f6b2" data-name="Layer 2"><g id="a249e285-6b95-44bc-8219-71dd9b2e4ea2" data-name="Objects"><path class="acce8f3f-2392-4c80-83d1-45371b25fc7d" d="M97.06,23.07H77.16A11.54,11.54,0,1,1,77.16,0a3.35,3.35,0,0,1,0,6.7,4.84,4.84,0,1,0,0,9.68h19.9a3.35,3.35,0,1,1,0,6.69Z"/><path class="acce8f3f-2392-4c80-83d1-45371b25fc7d" d="M70.73,53.33a11.55,11.55,0,1,1,0-23.09h9.83a3.36,3.36,0,1,1,0,6.72H70.73a4.83,4.83,0,1,0,0,9.65,3.36,3.36,0,0,1,0,6.72Z"/><path class="acce8f3f-2392-4c80-83d1-45371b25fc7d" d="M43.24,23.07H26.81a3.35,3.35,0,1,1,0-6.69H43.24a3.35,3.35,0,1,1,0,6.69Z"/><path class="acce8f3f-2392-4c80-83d1-45371b25fc7d" d="M57,23.07H52.66a3.35,3.35,0,1,1,0-6.69H57a3.35,3.35,0,1,1,0,6.69Z"/><path class="acce8f3f-2392-4c80-83d1-45371b25fc7d" d="M17.61,23.07H13.44a3.35,3.35,0,1,1,0-6.69h4.17a3.35,3.35,0,1,1,0,6.69Z"/><path class="acce8f3f-2392-4c80-83d1-45371b25fc7d" d="M6.27,39.89H3.35a3.36,3.36,0,0,1,0-6.72H6.27a3.36,3.36,0,0,1,0,6.72Z"/><path class="acce8f3f-2392-4c80-83d1-45371b25fc7d" d="M30.65,39.89H16.8a3.36,3.36,0,1,1,0-6.72H30.65a3.36,3.36,0,0,1,0,6.72Z"/><path class="acce8f3f-2392-4c80-83d1-45371b25fc7d" d="M49.16,39.89H43.67a3.36,3.36,0,1,1,0-6.72h5.49a3.36,3.36,0,0,1,0,6.72Z"/><path class="acce8f3f-2392-4c80-83d1-45371b25fc7d" d="M19.11,56.68h-9a3.35,3.35,0,1,1,0-6.69h9a3.35,3.35,0,0,1,0,6.69Z"/><path class="acce8f3f-2392-4c80-83d1-45371b25fc7d" d="M31.43,56.68H28A3.35,3.35,0,1,1,28,50h3.44a3.35,3.35,0,1,1,0,6.69Z"/><path class="acce8f3f-2392-4c80-83d1-45371b25fc7d" d="M50.85,56.68H41.47a3.35,3.35,0,1,1,0-6.69h9.38a3.35,3.35,0,1,1,0,6.69Z"/></g></g></svg>