<svg xmlns="http://www.w3.org/2000/svg" viewBox="0 0 66.66 93"><defs><style>.fafe23c1-b072-4aa0-bd84-ae3bd1050c9a{fill:#97a7af;}</style></defs><g id="e444d24c-cc85-4b26-bf8a-98355c2384f4" data-name="Layer 2"><g id="a164dd1e-ac57-4f8c-8f80-f86181939b6a" data-name="Objects"><path class="fafe23c1-b072-4aa0-bd84-ae3bd1050c9a" d="M42.19,7.59C36.82.59,34.8,0,33.33,0s-3.49.59-8.86,7.59A160.58,160.58,0,0,0,14,23.48C9.77,30.67,0,48.59,0,59.67a33.33,33.33,0,0,0,66.66,0c0-11.08-9.77-29-14-36.19A158.82,158.82,0,0,0,42.19,7.59ZM21.07,52.13a2.73,2.73,0,1,1,2.72,2.73A2.72,2.72,0,0,1,21.07,52.13Zm8.5,19.5A2.72,2.72,0,0,1,27.21,73a2.8,2.8,0,0,1-1.36-.36,2.74,2.74,0,0,1-1-3.73L37.09,47.71a2.72,2.72,0,0,1,4.72,2.72ZM42,70.29a2.72,2.72,0,1,1,2.72-2.72A2.73,2.73,0,0,1,42,70.29Z"/></g></g></svg>