<svg xmlns="http://www.w3.org/2000/svg" viewBox="0 0 141.3 141.3"><defs><style>.be43fdb9-1260-4ea0-b653-f5c46a9dab2a{fill:#edcf54;}.adbd008f-1331-4fe1-a56c-b2d58ac7256e{fill:#44768c;}</style></defs><g id="fd90821c-83e2-4553-8202-b6b5d44b2764" data-name="Layer 2"><g id="bcf1751a-3955-4cef-a329-f4e26439c6e6" data-name="Objects"><path class="be43fdb9-1260-4ea0-b653-f5c46a9dab2a" d="M70.65,109A38.36,38.36,0,1,1,109,70.65,38.41,38.41,0,0,1,70.65,109Z"/><path class="be43fdb9-1260-4ea0-b653-f5c46a9dab2a" d="M71.52,22.3c-2.77,0-5-1.84-5-4.1V4.1c0-2.27,2.24-4.1,5-4.1s5,1.83,5,4.1V18.2C76.53,20.46,74.29,22.3,71.52,22.3Z"/><path class="be43fdb9-1260-4ea0-b653-f5c46a9dab2a" d="M137.16,74.79H122.91a4.14,4.14,0,0,1,0-8.28h14.25a4.14,4.14,0,1,1,0,8.28Z"/><path class="be43fdb9-1260-4ea0-b653-f5c46a9dab2a" d="M18.39,74.79H4.14a4.14,4.14,0,1,1,0-8.28H18.39a4.14,4.14,0,1,1,0,8.28Z"/><path class="be43fdb9-1260-4ea0-b653-f5c46a9dab2a" d="M107.6,37.84a4.15,4.15,0,0,1-2.93-7.07l10.08-10.08a4.14,4.14,0,1,1,5.86,5.86L110.53,36.62a4.14,4.14,0,0,1-2.93,1.22Z"/><path class="be43fdb9-1260-4ea0-b653-f5c46a9dab2a" d="M117.68,121.82a4.17,4.17,0,0,1-2.93-1.21l-10.08-10.08a4.14,4.14,0,1,1,5.86-5.86l10.08,10.08a4.14,4.14,0,0,1-2.93,7.07Z"/><path class="be43fdb9-1260-4ea0-b653-f5c46a9dab2a" d="M23.62,121.82a4.14,4.14,0,0,1-2.93-7.07l10.08-10.08a4.14,4.14,0,1,1,5.85,5.86L26.55,120.61A4.17,4.17,0,0,1,23.62,121.82Z"/><path class="be43fdb9-1260-4ea0-b653-f5c46a9dab2a" d="M33.7,37.84a4.14,4.14,0,0,1-2.93-1.22L20.69,26.55a4.14,4.14,0,0,1,5.86-5.86L36.62,30.77a4.15,4.15,0,0,1-2.92,7.07Z"/><path class="be43fdb9-1260-4ea0-b653-f5c46a9dab2a" d="M90.7,26.53a4.24,4.24,0,0,1-1.59-.31,4.14,4.14,0,0,1-2.23-5.42L92.35,7.64A4.14,4.14,0,0,1,100,10.82L94.53,24A4.16,4.16,0,0,1,90.7,26.53Z"/><path class="be43fdb9-1260-4ea0-b653-f5c46a9dab2a" d="M132.06,100.31a4.19,4.19,0,0,1-1.58-.31l-13.16-5.47a4.14,4.14,0,1,1,3.17-7.65l13.16,5.47a4.14,4.14,0,0,1-1.59,8Z"/><path class="be43fdb9-1260-4ea0-b653-f5c46a9dab2a" d="M45.12,136.21a4.21,4.21,0,0,1-1.58-.32,4.14,4.14,0,0,1-2.24-5.41l5.47-13.16a4.14,4.14,0,1,1,7.65,3.17L49,133.65a4.13,4.13,0,0,1-3.83,2.56Z"/><path class="be43fdb9-1260-4ea0-b653-f5c46a9dab2a" d="M22.39,54.73a4.24,4.24,0,0,1-1.59-.31L7.64,49a4.14,4.14,0,0,1,3.18-7.65L24,46.77a4.14,4.14,0,0,1-1.59,8Z"/><path class="be43fdb9-1260-4ea0-b653-f5c46a9dab2a" d="M119,54.85a4.14,4.14,0,0,1-1.58-8l13.18-5.44a4.14,4.14,0,0,1,3.16,7.66l-13.18,5.43a4,4,0,0,1-1.58.32Z"/><path class="be43fdb9-1260-4ea0-b653-f5c46a9dab2a" d="M96,136.27a4.15,4.15,0,0,1-3.83-2.56l-5.44-13.18a4.14,4.14,0,0,1,7.66-3.16l5.44,13.18a4.14,4.14,0,0,1-2.25,5.4A4.21,4.21,0,0,1,96,136.27Z"/><path class="be43fdb9-1260-4ea0-b653-f5c46a9dab2a" d="M9.17,100.17a4.14,4.14,0,0,1-1.58-8l13.18-5.44a4.14,4.14,0,0,1,3.16,7.66L10.75,99.86A4.16,4.16,0,0,1,9.17,100.17Z"/><path class="be43fdb9-1260-4ea0-b653-f5c46a9dab2a" d="M50.71,26.49a4.15,4.15,0,0,1-3.83-2.56L41.44,10.75A4.14,4.14,0,0,1,49.1,7.59l5.43,13.18a4.13,4.13,0,0,1-2.24,5.4,4,4,0,0,1-1.58.32Z"/><path class="be43fdb9-1260-4ea0-b653-f5c46a9dab2a" d="M70.65,32.29V109a38.36,38.36,0,0,0,0-76.72Z"/><path class="be43fdb9-1260-4ea0-b653-f5c46a9dab2a" d="M71.52,0V22.3c2.77,0,5-1.84,5-4.1V4.1C76.53,1.83,74.29,0,71.52,0Z"/><path class="adbd008f-1331-4fe1-a56c-b2d58ac7256e" d="M81.58,132.06l-8,8a4.14,4.14,0,0,1-5.81,0l-8.28-8a4.14,4.14,0,0,1,2.89-7.1,4.07,4.07,0,0,1,2.88,1.17l1.28,1.24V74.63a4.14,4.14,0,0,1,8.28,0v52.51l.94-.93a4.14,4.14,0,1,1,5.85,5.85Z"/><path class="adbd008f-1331-4fe1-a56c-b2d58ac7256e" d="M81.58,132.06l-8,8a4.14,4.14,0,0,1-2.9,1.21V70.49a4.14,4.14,0,0,1,4.14,4.14v52.51l.94-.93a4.14,4.14,0,1,1,5.85,5.85Z"/></g></g></svg>