<svg xmlns="http://www.w3.org/2000/svg" viewBox="0 0 84.86 418.5"><defs><style>.f00e346f-4a9e-419f-8697-5126b554a089{fill:none;stroke:#bdcbd1;stroke-width:7px;}.a97fd34e-3ee1-4ba2-a5e9-b7bc2c202237,.f00e346f-4a9e-419f-8697-5126b554a089{stroke-miterlimit:10;}.a97fd34e-3ee1-4ba2-a5e9-b7bc2c202237{fill:#ff6c6c;stroke:#ff6c6c;stroke-width:9px;}.be744158-f22c-4998-b94e-ccd7a1c39010{fill:#7d8a8e;}</style></defs><g id="b5301503-8344-433d-85e4-5ef224256cd0" data-name="Layer 2"><g id="a32c40aa-d16b-489f-9eee-3e0adc6629a5" data-name="Objects"><path class="f00e346f-4a9e-419f-8697-5126b554a089" d="M81.36,375.75a38.93,38.93,0,1,1-77.86,0,39.28,39.28,0,0,1,22.25-35.48,5.18,5.18,0,0,0,2.93-4.7V17.25A13.76,13.76,0,0,1,42.43,3.5h0A13.76,13.76,0,0,1,56.18,17.25V335.57a5.18,5.18,0,0,0,2.93,4.7A39.28,39.28,0,0,1,81.36,375.75Z"/><path class="a97fd34e-3ee1-4ba2-a5e9-b7bc2c202237" d="M42.43,401.5A25.62,25.62,0,0,1,17,375.75a25.9,25.9,0,0,1,14.58-23.3,18.79,18.79,0,0,0,10.6-16.88V17.25a.25.25,0,0,1,.5,0V335.57a18.79,18.79,0,0,0,10.6,16.88,25.9,25.9,0,0,1,14.58,23.3A25.62,25.62,0,0,1,42.43,401.5Z"/><path class="be744158-f22c-4998-b94e-ccd7a1c39010" d="M47.18,49h-9.5V17.25a4.75,4.75,0,0,1,4.75-4.75h0a4.75,4.75,0,0,1,4.75,4.75Z"/></g></g></svg>